Coordinates
version=1
nRows=11
nColumns=46
inDegrees=yes

Units are S.I. units (second, meters, Newtons, ...)
Angles are in degrees.

endheader
time	pelvis_tilt	pelvis_list	pelvis_rotation	pelvis_tx	pelvis_ty	pelvis_tz	bb_angle	bb_tx	bb_ty	bb_tz	hip_flexion_r	hip_adduction_r	hip_rotation_r	knee_angle_r	knee_angle_r_beta	ankle_angle_r	subtalar_angle_r	mtp_angle_r	crank_angle_r	hip_flexion_l	hip_adduction_l	hip_rotation_l	knee_angle_l	knee_angle_l_beta	ankle_angle_l	subtalar_angle_l	mtp_angle_l	crank_angle_l	lumbar_extension	lumbar_bending	lumbar_rotation	arm_flex_r	arm_add_r	arm_rot_r	elbow_flex_r	pro_sup_r	wrist_flex_r	wrist_dev_r	arm_flex_l	arm_add_l	arm_rot_l	elbow_flex_l	pro_sup_l	wrist_flex_l	wrist_dev_l
      7.50500000	    -10.66978363	     -9.18714119	    -10.45286962	      0.18673866	      1.05474371	     -0.26220571	      0.00000000	      0.50000000	      0.00000000	      0.25000000	     82.03574915	     10.21639658	      6.49103813	    114.43838944	      1.99732669	     11.90023208	      6.86820722	      0.00000000	      0.00000000	     33.32986356	    -18.37077594	     -8.58231977	     38.56821124	      0.67314227	    -12.33787264	     -2.88382632	      0.00000000	      0.00000000	    -68.83792954	      9.20425564	     10.08846716	     89.55614334	    -10.20871758	     36.81209296	     62.50885390	     46.13402803	      0.00000000	      0.00000000	     62.23419036	    -32.96774735	      9.89959539	     78.31549589	     41.59371293	      0.00000000	      0.00000000
      7.51000000	    -10.98987090	     -9.66129757	    -11.28078957	      0.18707700	      1.05565749	     -0.26272331	      0.00000000	      0.50000000	      0.00000000	      0.25000000	     82.31913753	     10.79631560	      5.91549129	    113.20857469	      1.97586237	     13.12804415	      7.13822296	      0.00000000	      0.00000000	     33.48098771	    -19.17566018	     -8.72461212	     40.01750165	      0.69843716	    -12.58093571	     -3.84406865	      0.00000000	      0.00000000	    -68.99164011	      9.21861103	     10.61545494	     89.57578780	     -9.75142649	     37.19354951	     62.61196388	     45.85341143	      0.00000000	      0.00000000	     61.83099841	    -33.40763955	      9.70130982	     78.39036908	     41.69740761	      0.00000000	      0.00000000
      7.51500000	    -11.02222936	     -9.90043446	    -11.61198128	      0.18680041	      1.05708391	     -0.26324938	      0.00000000	      0.50000000	      0.00000000	      0.25000000	     82.17890347	     10.92529904	      5.52433157	    111.87790692	      1.95263784	     14.51970231	      7.00740042	      0.00000000	      0.00000000	     33.57242947	    -19.44759449	     -8.44870215	     41.45474555	      0.72352180	    -12.91164936	     -4.67556149	      0.00000000	      0.00000000	    -69.34246199	      9.26792483	     10.71853272	     89.59724627	     -9.41307518	     37.37534369	     62.73463180	     45.76375170	      0.00000000	      0.00000000	     62.00297056	    -33.70321324	      9.49041258	     78.42152387	     41.72081531	      0.00000000	      0.00000000
      7.52000000	    -11.16864927	    -10.26391942	    -11.87054015	      0.18694813	      1.05822530	     -0.26355316	      0.00000000	      0.50000000	      0.00000000	      0.25000000	     81.97063874	     11.00976822	      4.91201927	    110.36903435	      1.92630304	     15.91844126	      7.00931264	      0.00000000	      0.00000000	     33.89993076	    -19.81621194	     -7.94297258	     43.10053744	      0.75224629	    -13.25797945	     -5.75568677	      0.00000000	      0.00000000	    -69.64882148	      9.47650954	     10.91966861	     89.61481079	     -9.04224748	     37.55114078	     62.90309399	     45.67186384	      0.00000000	      0.00000000	     61.96611353	    -34.13826342	      9.23913062	     78.41443823	     41.73868232	      0.00000000	      0.00000000
      7.52500000	    -11.57666532	    -10.72807874	    -11.92791966	      0.18703315	      1.05900466	     -0.26426796	      0.00000000	      0.50000000	      0.00000000	      0.25000000	     81.86762790	     10.84716068	      4.08290256	    108.60464829	      1.89550870	     17.04231747	      7.09907795	      0.00000000	      0.00000000	     34.72357384	    -20.08044240	     -6.86599649	     44.85450621	      0.78285882	    -13.77145756	     -7.21576235	      0.00000000	      0.00000000	    -69.71816916	     10.12016142	     11.02413752	     89.62737208	     -8.31053697	     37.77655417	     62.98963399	     45.19794733	      0.00000000	      0.00000000	     61.18905355	    -34.93857917	      8.56839866	     78.83477373	     41.91091446	      0.00000000	      0.00000000
      7.53000000	    -11.70318930	    -11.03795531	    -12.05407148	      0.18722321	      1.06023873	     -0.26443053	      0.00000000	      0.50000000	      0.00000000	      0.25000000	     81.35771544	     10.77696196	      3.44556319	    106.72911236	      1.86277442	     18.22704027	      7.11617453	      0.00000000	      0.00000000	     35.18041647	    -20.27357539	     -6.12991021	     46.59878709	      0.81330226	    -14.13616389	     -8.36723714	      0.00000000	      0.00000000	    -70.01321855	     10.35978155	     11.01742078	     89.63858193	     -7.75907141	     37.87150741	     63.04246051	     44.84526855	      0.00000000	      0.00000000	     60.86279717	    -35.51666006	      7.98546112	     79.13754145	     42.02247928	      0.00000000	      0.00000000
      7.53500000	    -11.72073102	    -11.20293811	    -12.14960054	      0.18758459	      1.06138547	     -0.26468607	      0.00000000	      0.50000000	      0.00000000	      0.25000000	     80.62667136	     10.60950037	      2.89801488	    104.75276827	      1.82828071	     19.43757600	      6.97868031	      0.00000000	      0.00000000	     35.55717106	    -20.28523610	     -5.45170288	     48.46062973	      0.84579755	    -14.25833662	     -9.53698486	      0.00000000	      0.00000000	    -70.31617946	     10.42890836	     10.89402659	     89.64681230	     -7.38756986	     37.90893746	     63.10879955	     44.62161898	      0.00000000	      0.00000000	     60.76027309	    -35.97923346	      7.53707574	     79.37185696	     42.09308966	      0.00000000	      0.00000000
      7.54000000	    -11.82303643	    -11.38940120	    -12.09994995	      0.18785637	      1.06217810	     -0.26471188	      0.00000000	      0.50000000	      0.00000000	      0.25000000	     79.93179126	     10.31400785	      2.27091874	    102.69038534	      1.79228533	     20.45160021	      7.05065245	      0.00000000	      0.00000000	     36.21328120	    -20.24093937	     -4.50710123	     50.47378701	      0.88093377	    -14.65566862	    -10.58690141	      0.00000000	      0.00000000	    -70.46775705	     10.73136962	     10.60154157	     89.65019266	     -6.62693761	     37.82309645	     63.04276402	     44.00342505	      0.00000000	      0.00000000	     60.04820994	    -36.66267959	      6.73972867	     79.99300003	     42.30685238	      0.00000000	      0.00000000
      7.54500000	    -11.66222245	    -11.43025851	    -12.07707033	      0.18823968	      1.06311080	     -0.26458093	      0.00000000	      0.50000000	      0.00000000	      0.25000000	     78.86451378	     10.04176880	      1.85837707	    100.55414781	      1.75500096	     21.46590945	      7.12111246	      0.00000000	      0.00000000	     36.55155170	    -20.08455682	     -3.82429139	     52.54493078	      0.91708205	    -14.60756420	    -11.44814887	      0.00000000	      0.00000000	    -70.76387377	     10.71808440	     10.33107695	     89.65382203	     -6.38814569	     37.82218506	     63.04751305	     43.83170865	      0.00000000	      0.00000000	     60.08859135	    -37.00285766	      6.42007786	     80.14690954	     42.35355840	      0.00000000	      0.00000000
      7.55000000	    -11.71154698	    -11.54848145	    -11.87223071	      0.18849749	      1.06362413	     -0.26480704	      0.00000000	      0.50000000	      0.00000000	      0.25000000	     77.94115875	      9.53766890	      1.23446758	     98.25565663	      1.71488472	     22.30184254	      7.47854652	      0.00000000	      0.00000000	     37.31163712	    -19.81182433	     -2.68633566	     54.71221696	      0.95490833	    -14.86957948	    -12.49271180	      0.00000000	      0.00000000	    -70.88599452	     11.08080356	      9.98870471	     89.65282411	     -5.66667529	     37.65644014	     62.86597827	     43.24865962	      0.00000000	      0.00000000	     59.36405446	    -37.61398158	      5.83540634	     80.59157695	     42.53570322	      0.00000000	      0.00000000
      7.55500000	    -11.50766516	    -11.40474596	    -11.89637393	      0.18888703	      1.06435363	     -0.26456009	      0.00000000	      0.50000000	      0.00000000	      0.25000000	     76.73396880	      9.22416519	      0.94720069	     95.92505618	      1.67420807	     22.93070378	      7.73701805	      0.00000000	      0.00000000	     37.66708532	    -19.49459136	     -2.12867373	     56.92509108	      0.99353027	    -14.65378338	    -13.29851889	      0.00000000	      0.00000000	    -71.07577182	     10.88132070	      9.62333872	     89.65082455	     -5.52627039	     37.61718601	     62.77672775	     43.09074875	      0.00000000	      0.00000000	     59.36073045	    -37.80578238	      5.59106218	     80.70993332	     42.57411529	      0.00000000	      0.00000000
